<?xml version="1.0" encoding="UTF-8"?>
<svg version="1.1" xmlns="http://www.w3.org/2000/svg" width="430" height="550">
<path d="M0 0 C0.99 0.33 1.98 0.66 3 1 C11.04460919 52.95173953 12.31061453 111.35610915 -20 156 C-26.44561314 164.50400854 -33.40327491 171.60917944 -42 178 C-43.16402344 178.90298828 -43.16402344 178.90298828 -44.3515625 179.82421875 C-65.11005794 195.27159412 -89.95513281 200.27439474 -115 203.9375 C-135.72130629 207.02666141 -159.17976562 211.48469161 -173.8125 228 C-177.99746341 233.73937839 -179.70065352 239.12110689 -181 246 C-188.41628953 240.98309826 -193.31153838 232.73534688 -195 224 C-196.13429452 213.66531655 -193.94144131 205.76475925 -187.875 197.375 C-174.29326488 181.03671822 -153.51781172 173.82384766 -134.14453125 166.89453125 C-132.68466797 166.37149414 -132.68466797 166.37149414 -131.1953125 165.83789062 C-129.33257363 165.17533107 -127.46684753 164.52108451 -125.59765625 163.87695312 C-112.87126139 159.48079608 -112.87126139 159.48079608 -104 150 C-103.8210415 147.87377035 -103.8210415 147.87377035 -105.3125 145.9375 C-117.58323859 137.09115357 -137.33603095 139.46288282 -151.49804688 141.58154297 C-172.18260175 145.04107918 -191.62585232 151.95075461 -210 162 C-210.62326172 162.33725098 -211.24652344 162.67450195 -211.88867188 163.02197266 C-244.93519446 181.13566233 -267.673621 210.18593016 -283.75 243.6875 C-286.77342376 249.86580073 -290.39372976 254.90885921 -295 260 C-295.66515625 260.75796875 -296.3303125 261.5159375 -297.015625 262.296875 C-301.32482829 266.92527853 -305.97469165 270.56409932 -311.25 274 C-312.13582764 274.57923218 -312.13582764 274.57923218 -313.03955078 275.17016602 C-316.32514437 277.22563708 -319.13958252 278.53558888 -323 279 C-321.49245039 271.1422135 -318.96039336 263.80439831 -316.1875 256.3125 C-315.95034271 255.66737457 -315.71318542 255.02224915 -315.46884155 254.35757446 C-309.91849633 239.30623178 -303.5756939 224.62742602 -297 210 C-296.6174707 209.14100098 -296.23494141 208.28200195 -295.84082031 207.39697266 C-288.19158354 190.27951793 -279.17998322 173.93314993 -268.8125 158.3125 C-268.17183594 157.34562256 -267.53117187 156.37874512 -266.87109375 155.38256836 C-235.16588396 108.4758428 -185.94977382 90.62957129 -135.57983398 69.72558594 C-62.76190365 43.23470325 -62.76190365 43.23470325 0 0 Z " fill="#61AB31" transform="translate(422,0)"/>
<path d="M0 0 C-1.50754961 7.8577865 -4.03960664 15.19560169 -6.8125 22.6875 C-7.04965729 23.33262543 -7.28681458 23.97775085 -7.53115845 24.64242554 C-13.08150367 39.69376822 -19.4243061 54.37257398 -26 69 C-26.3825293 69.85899902 -26.76505859 70.71799805 -27.15917969 71.60302734 C-34.80841646 88.72048207 -43.82001678 105.06685007 -54.1875 120.6875 C-54.82816406 121.65437744 -55.46882813 122.62125488 -56.12890625 123.61743164 C-88.49047214 171.49521261 -139.4528677 189.19040775 -190.7119751 210.54277039 C-261.61729741 236.87472905 -261.61729741 236.87472905 -323 279 C-323.99 278.67 -324.98 278.34 -326 278 C-326.48343366 274.87564509 -326.96093059 271.75040869 -327.4375 268.625 C-327.57220703 267.75488281 -327.70691406 266.88476562 -327.84570312 265.98828125 C-327.97783203 265.11816406 -328.10996094 264.24804688 -328.24609375 263.3515625 C-328.36654053 262.56604004 -328.4869873 261.78051758 -328.61108398 260.97119141 C-329.62824443 253.20041762 -330.16564815 245.53609977 -330.203125 237.69921875 C-330.20882507 236.7421553 -330.21452515 235.78509186 -330.22039795 234.79902649 C-330.22978567 232.78131187 -330.23635692 230.76358234 -330.24023438 228.74584961 C-330.24985385 225.73327085 -330.28090209 222.72140121 -330.3125 219.70898438 C-330.51531503 182.61816352 -321.86160308 144.50432881 -297 116 C-296.46117187 115.31679688 -295.92234375 114.63359375 -295.3671875 113.9296875 C-274.34543221 87.83735808 -239.94470825 79.38300547 -208.4375 75.0625 C-187.11794638 72.08746827 -162.79307889 67.07818864 -148 50 C-144.38638747 44.83769639 -143.07960786 39.13671838 -142 33 C-134.74287643 38.18365969 -130.37786708 45.42887004 -128 54 C-126.52235558 65.73590663 -129.51512912 74.48655889 -136.6875 83.75 C-150.43695185 98.30617989 -170.64532512 105.51564135 -189.0625 111.8984375 C-198.69572868 115.25407367 -208.79756976 118.82107678 -217 125 C-218.42779274 128.10935018 -218.42779274 128.10935018 -219 131 C-215.32107822 135.54455043 -209.57142943 137.09791972 -204 138 C-189.20614919 138.85859493 -174.40000873 138.64172 -160 135 C-159.18901855 134.80132324 -158.37803711 134.60264648 -157.54248047 134.39794922 C-144.7358935 131.19810015 -132.83756746 126.81936721 -121 121 C-120.03054443 120.53255371 -120.03054443 120.53255371 -119.04150391 120.05566406 C-102.83435257 112.17110396 -88.84958675 101.56042586 -76 89 C-75.30003906 88.36191406 -74.60007813 87.72382813 -73.87890625 87.06640625 C-59.93043208 74.04589709 -49.92583559 56.91648342 -41.48046875 39.99609375 C-36.39134712 29.83383202 -31.30203584 21.84988261 -23 14 C-21.98486328 12.99259766 -21.98486328 12.99259766 -20.94921875 11.96484375 C-15.62713047 6.95128233 -7.50541024 0 0 0 Z " fill="#44AED0" transform="translate(330,271)"/>
<path d="M0 0 C0.28971949 5.58894404 -0.63627728 9.82355763 -2.484375 15.07421875 C-3.01158401 16.6357317 -3.53851054 18.19734006 -4.06518555 19.7590332 C-4.47914078 20.96808823 -4.47914078 20.96808823 -4.90145874 22.2015686 C-9.60176318 35.97182934 -13.93609935 49.55269544 -16 64 C-16.19335938 65.28132813 -16.38671875 66.56265625 -16.5859375 67.8828125 C-16.95994713 70.91685888 -17.01961673 73.85441607 -16.96484375 76.91015625 C-16.79993177 90.3698083 -16.79993177 90.3698083 -19.97265625 94.6796875 C-22.57467057 96.48943471 -25.08824468 97.75677863 -28 99 C-29.67334149 99.96771556 -31.34055517 100.94614335 -33 101.9375 C-36.71382637 104 -36.71382637 104 -39 104 C-38.51944851 92.79342591 -37.26293332 81.91751879 -35.3125 70.875 C-35.18061279 70.11674927 -35.04872559 69.35849854 -34.9128418 68.57727051 C-25.29020507 13.5746946 -25.29020507 13.5746946 -8 1 C-3.6 -1.2 -3.6 -1.2 0 0 Z " fill="#44AECF" transform="translate(248,279)"/>
<path d="M0 0 C-0.51328919 29.21082113 -5.3123047 77.73887668 -27.01171875 100.0703125 C-30.27191177 102.74056583 -32.2562372 103.92031113 -36.5 104.375 C-37.7375 104.189375 -37.7375 104.189375 -39 104 C-38.63635944 95.39947783 -36.21222524 87.86225104 -33.45062256 79.79754639 C-29.08949949 67.02461464 -25.09313769 54.36817273 -23 41 C-22.79890625 39.74316406 -22.5978125 38.48632812 -22.390625 37.19140625 C-21.99657331 33.9890535 -22.04564641 30.94324078 -22.2109375 27.72265625 C-22.77049996 13.26750331 -22.77049996 13.26750331 -19.54931641 9.14208984 C-15.49497072 5.77203114 -10.88706372 3.86873758 -6 2 C-5.22269531 1.60296875 -4.44539063 1.2059375 -3.64453125 0.796875 C-2 0 -2 0 0 0 Z " fill="#61AB31" transform="translate(220,167)"/>
<path d="M0 0 C-0.27256058 8.56407535 -2.82002003 15.99836054 -5.6875 24 C-8.8100336 32.79426348 -11.37093318 41.248704 -12.93383789 50.47900391 C-15.49259806 65.26221598 -21.78898916 73.22571435 -33.21582031 82.76025391 C-35 84 -35 84 -37 84 C-34.76379765 59.17044289 -30.54844121 20.59095233 -10.6875 2.625 C-7.04688641 -0.25499858 -4.54984936 -1.41202222 0 0 Z " fill="#44AED0" transform="translate(280,276)"/>
<path d="M0 0 C-2.42569206 24.6189642 -6.43099222 64.81882879 -27 82 C-31.96185388 85.21061133 -31.96185388 85.21061133 -35.17578125 84.55859375 C-35.77777344 84.37425781 -36.37976563 84.18992187 -37 84 C-36.52227697 75.69843563 -33.99507422 68.38288788 -31.3125 60.5625 C-28.2388423 51.55698901 -25.65806626 42.85618347 -24.06616211 33.44848633 C-21.50676702 18.70685623 -15.17826148 10.74695962 -3.78417969 1.23974609 C-2 0 -2 0 0 0 Z " fill="#61AB31" transform="translate(186,190)"/>
</svg>
