<?xml version="1.0" encoding="UTF-8"?>
<svg version="1.1" xmlns="http://www.w3.org/2000/svg" width="250" height="95">
<path d="M0 0 C0.70339508 -0.00700928 1.40679016 -0.01401855 2.13150024 -0.02124023 C4.43500336 -0.03871208 6.73725794 -0.02723875 9.04077148 -0.01367188 C10.65307346 -0.01636963 12.26537385 -0.02025441 13.87767029 -0.02526855 C17.2475441 -0.03114865 20.61699227 -0.02264807 23.98681641 -0.00390625 C28.29662418 0.01890128 32.60543643 0.0057401 36.91520786 -0.01819611 C40.24134263 -0.03267903 43.56724294 -0.02803709 46.89338493 -0.01768494 C48.48213762 -0.01502547 50.07091192 -0.01825987 51.65963936 -0.02760315 C53.88303829 -0.03781268 56.10484414 -0.02221015 58.328125 0 C59.59052505 0.00318237 60.85292511 0.00636475 62.15357971 0.00964355 C67.4017716 0.78326631 70.46239787 3.22696653 73.91186523 7.14257812 C76.71246143 11.08415795 76.74241905 13.3829934 76.79223633 18.22705078 C76.80450256 19.26159897 76.80450256 19.26159897 76.8170166 20.31704712 C76.8418758 22.60523615 76.85839228 24.89336289 76.87280273 27.18164062 C76.87812641 27.96416576 76.88345009 28.7466909 76.88893509 29.55292892 C76.91567533 33.6988502 76.93504305 37.84474135 76.94946289 41.99072266 C76.96277677 45.41482408 76.99057974 48.83832596 77.03149414 52.26220703 C77.08095452 56.40133528 77.1056009 60.53992161 77.11268997 64.67933273 C77.11938218 66.25253588 77.13455125 67.8257279 77.15858078 69.39876175 C77.37140496 84.18016445 77.37140496 84.18016445 73.26065063 89.95565796 C68.49975731 94.4317915 64.94226009 96.01841632 58.40405273 96.01928711 C57.36380951 96.02739159 57.36380951 96.02739159 56.30255127 96.03565979 C54.02604572 96.0480961 51.75081766 96.03169186 49.47436523 96.01367188 C47.88305597 96.01382698 46.29174633 96.01531793 44.70043945 96.01808167 C41.37165547 96.01946337 38.04330355 96.00694648 34.71459961 95.98413086 C30.45757275 95.95574661 26.2012633 95.95848647 21.94418335 95.97122097 C18.66009442 95.97819125 15.37616997 95.97037354 12.09210205 95.95796394 C10.52289461 95.95346253 8.95366943 95.95310115 7.38446045 95.95702934 C5.18750089 95.95995493 2.99151403 95.94337208 0.79467773 95.92163086 C-0.45297363 95.91622787 -1.700625 95.91082489 -2.98608398 95.90525818 C-7.38824082 95.40544766 -10.78796752 94.0229896 -14.04516602 90.98242188 C-17.78251459 86.09511989 -18.5292326 83.95684014 -18.57763672 77.80810547 C-18.58420792 77.11840668 -18.59077911 76.42870789 -18.59754944 75.71810913 C-18.61729719 73.4299102 -18.62895141 71.1417771 -18.63891602 68.85351562 C-18.64299154 68.07099049 -18.64706707 67.28846535 -18.6512661 66.48222733 C-18.67213825 62.33629876 -18.68643208 58.19040336 -18.69580078 54.04443359 C-18.70683675 49.77402157 -18.74120021 45.50413472 -18.78097248 41.2339077 C-18.80720426 37.94120356 -18.81549865 34.64862294 -18.81908226 31.35582352 C-18.82393536 29.78264464 -18.83551281 28.20947081 -18.85412025 26.6363945 C-19.03781405 10.07022975 -19.03781405 10.07022975 -14.40063477 4.51757812 C-9.40046678 1.11583274 -6.16171076 0.01552322 0 0 Z M-8.40063477 14.51757812 C-9.1425048 17.54242564 -9.1425048 17.54242564 -9.01586914 20.96679688 C-9.02517456 22.27495361 -9.03447998 23.58311035 -9.04406738 24.9309082 C-9.02848058 26.3556425 -9.01189554 27.78036618 -8.99438477 29.20507812 C-8.99267319 30.66951397 -8.99273983 32.13395289 -8.99450684 33.59838867 C-8.99285437 36.66517514 -8.97417171 39.73122992 -8.94262695 42.79785156 C-8.9029486 46.72560194 -8.8985819 50.65239425 -8.90608978 54.58030701 C-8.90916177 57.60356396 -8.897031 60.62660618 -8.87995911 63.64981079 C-8.87293606 65.09785617 -8.86980373 66.54592588 -8.87065125 67.99398804 C-8.86885037 70.01884654 -8.84518435 72.04364985 -8.82055664 74.06835938 C-8.81213745 75.21989502 -8.80371826 76.37143066 -8.79504395 77.55786133 C-8.35931306 80.82766356 -7.71698715 82.20377885 -5.40063477 84.51757812 C-0.46151421 86.16395164 4.45731004 86.24078331 9.59936523 85.51757812 C13.14660826 83.56689457 15.78313961 81.15002937 17.59936523 77.51757812 C17.99037151 72.33674492 17.56699895 69.73474182 14.59936523 65.51757812 C11.68128775 62.2268917 8.59425521 59.09843885 5.51733398 55.95703125 C4.90245117 55.31572266 4.28756836 54.67441406 3.65405273 54.01367188 C3.09186035 53.4380249 2.52966797 52.86237793 1.95043945 52.26928711 C0.39029196 50.24650824 -0.2904674 49.08290396 -0.40063477 46.51757812 C1.01464844 44.56640625 1.01464844 44.56640625 3.15014648 42.54882812 C3.91133789 41.81277344 4.6725293 41.07671875 5.45678711 40.31835938 C6.26696289 39.55910156 7.07713867 38.79984375 7.91186523 38.01757812 C9.49566837 36.51175077 11.07527547 35.00149468 12.65014648 33.48632812 C13.35824463 32.82052734 14.06634277 32.15472656 14.79589844 31.46875 C17.61075996 28.42334953 18.51610827 26.26689077 18.97436523 22.14257812 C18.52767909 17.82461206 17.36779414 15.82431265 14.59936523 12.51757812 C11.08926047 10.16412115 7.81681302 10.18692122 3.66186523 10.14257812 C2.4565918 10.11421875 1.25131836 10.08585938 0.00952148 10.05664062 C-4.0999741 10.61210509 -5.51821997 11.57448569 -8.40063477 14.51757812 Z M27.59936523 10.51757812 C27.91905273 11.21367187 28.23874023 11.90976563 28.56811523 12.62695312 C30.63852344 18.43037006 30.90258894 25.23899564 28.60717773 31.01367188 C24.6301932 37.31618127 18.9803187 42.42375063 13.59936523 47.51757812 C16.33025201 50.73862407 19.06010327 53.9358617 21.93139648 57.03320312 C22.72932617 57.89429688 23.52725586 58.75539062 24.34936523 59.64257812 C25.10733398 60.44953125 25.86530273 61.25648437 26.64624023 62.08789062 C29.63643847 65.80769723 30.88373024 69.13302486 30.84936523 73.89257812 C30.85452148 74.6015625 30.85967773 75.31054688 30.86499023 76.04101562 C30.59936523 78.51757813 30.59936523 78.51757813 28.59936523 85.51757812 C38.49936523 85.51757812 48.39936523 85.51757812 58.59936523 85.51757812 C56.94296937 82.2047864 56.04880374 80.72533741 53.54248047 78.28125 C52.92521591 77.67381958 52.30795135 77.06638916 51.67198181 76.44055176 C50.67504051 75.47321106 50.67504051 75.47321106 49.65795898 74.48632812 C48.2561508 73.10493488 46.8544617 71.72342079 45.45288086 70.34179688 C43.24091481 68.17339575 41.02655026 66.00751303 38.80957031 63.84423828 C36.6692994 61.75217274 34.53825375 59.65104406 32.40795898 57.54882812 C31.74130722 56.90393433 31.07465546 56.25904053 30.38780212 55.59460449 C29.46663353 54.68345886 29.46663353 54.68345886 28.52685547 53.75390625 C27.98439682 53.22414185 27.44193817 52.69437744 26.88304138 52.14855957 C25.3773598 50.23550796 24.83976711 48.93893295 24.59936523 46.51757812 C27.15054933 42.81424637 30.06875519 40.05693058 33.47436523 37.14257812 C41.13259794 30.59913484 41.13259794 30.59913484 45.78686523 21.89257812 C45.54965407 17.62277712 44.36888992 15.73621493 41.59936523 12.51757812 C38.45425622 10.50876656 36.04338949 10.29536696 32.34936523 10.39257812 C31.01131836 10.41964844 31.01131836 10.41964844 29.64624023 10.44726562 C28.97077148 10.47046875 28.29530273 10.49367188 27.59936523 10.51757812 Z M52.59936523 10.51757812 C53.08276367 11.22398438 53.56616211 11.93039062 54.06420898 12.65820312 C56.66181299 17.49648845 56.40592883 22.1723855 55.59936523 27.51757812 C52.43410888 35.52078728 44.9820906 41.07749725 38.59936523 46.51757812 C40.22153699 50.60630633 43.1562991 53.34636495 46.22827148 56.37695312 C47.05282082 57.20081512 47.05282082 57.20081512 47.89402771 58.0413208 C49.05247378 59.19675397 50.21334118 60.34976397 51.37646484 61.50048828 C53.16427374 63.26996193 54.94387227 65.04738669 56.72241211 66.82617188 C57.84889293 67.9477402 58.97583018 69.06885032 60.10327148 70.18945312 C60.63868057 70.72374939 61.17408966 71.25804565 61.72572327 71.80853271 C63.81467095 74.36919245 63.81467095 74.36919245 66.59936523 75.51757812 C66.65017153 67.81293562 66.68514358 60.1083365 66.70922852 52.40356445 C66.71927168 49.78375636 66.73290875 47.16395944 66.75024414 44.54418945 C66.77456609 40.77357217 66.78586542 37.00310343 66.79467773 33.23242188 C66.80500031 32.06549301 66.81532288 30.89856415 66.82595825 29.6962738 C66.93603571 20.17819808 66.93603571 20.17819808 63.26733398 11.59179688 C61.03903812 10.15671171 59.53933998 10.21584009 56.91186523 10.33007812 C56.10362305 10.35714844 55.29538086 10.38421875 54.46264648 10.41210938 C53.84776367 10.44691406 53.23288086 10.48171875 52.59936523 10.51757812 Z " fill="#00519C" transform="translate(18.400634765625,-0.517578125)"/>
<path d="M0 0 C43.92857143 0 43.92857143 0 51.5625 7.5 C56.54298161 14.00270596 56.82548143 19.92755947 56 28 C54.96201011 31.03724869 53.71912189 33.26014949 52 36 C52.40992188 36.51949219 52.81984375 37.03898437 53.2421875 37.57421875 C53.78101563 38.27160156 54.31984375 38.96898437 54.875 39.6875 C55.40867188 40.37199219 55.94234375 41.05648437 56.4921875 41.76171875 C60.9432294 48.36909442 60.80865038 55.26728072 60 63 C58.18949568 69.1266173 55.29736534 73.55208826 49.94140625 77.0625 C43.94493135 79.95818205 38.75790139 80.27158653 32.2265625 80.1953125 C30.99715942 80.19229126 30.99715942 80.19229126 29.74291992 80.18920898 C26.70355573 80.17880502 23.66427179 80.15088271 20.625 80.125 C10.415625 80.063125 10.415625 80.063125 0 80 C0 53.6 0 27.2 0 0 Z M16 15 C16 20.28 16 25.56 16 31 C23.26 31 30.52 31 38 31 C41.43301271 24.74542877 41.43301271 24.74542877 40.4375 20.75 C38.80037197 17.61810289 38.10867524 16.65314048 35 15 C31.74193614 14.63358586 28.52319847 14.71822028 25.25 14.8125 C24.36183594 14.82603516 23.47367188 14.83957031 22.55859375 14.85351562 C20.372135 14.88878109 18.18598928 14.94258588 16 15 Z M16 46 C16 52.6 16 59.2 16 66 C29.87136755 66.92504847 29.87136755 66.92504847 42.4375 62.1875 C44.25277775 59.64611114 44.84785369 58.11899935 45 55 C44.24915633 51.92154094 43.21152558 50.24054988 41.12109375 47.86328125 C36.41984296 45.05665218 32.04937427 45.57161391 26.6875 45.75 C25.66076172 45.76804688 24.63402344 45.78609375 23.57617188 45.8046875 C21.05037929 45.85167899 18.52506863 45.92341831 16 46 Z " fill="#00529C" transform="translate(103,7)"/>
<path d="M0 0 C45.07692308 0 45.07692308 0 54 7.25 C59.31783535 13.2692285 60.53064299 19.33665463 60.2890625 27.25390625 C59.61158614 33.68993164 57.70830461 39.41894686 53 44 C46.15789474 49 46.15789474 49 42 49 C45.64751198 54.56781976 49.33656533 60.09371921 53.203125 65.51171875 C53.74807617 66.27556885 54.29302734 67.03941895 54.85449219 67.82641602 C55.94476423 69.34939989 57.0391222 70.86946764 58.13769531 72.38647461 C58.63881836 73.08651611 59.13994141 73.78655762 59.65625 74.5078125 C60.10806641 75.13316895 60.55988281 75.75852539 61.02539062 76.40283203 C62 78 62 78 62 80 C55.64508246 81.21949377 49.21784528 82.27414177 43 80 C37.43666513 75.30732952 33.93493857 68.72271344 30.41894531 62.44482422 C29.09972686 60.17182808 27.67909332 58.08347292 26.1171875 55.97265625 C24 53 24 53 24 51 C21.36 51 18.72 51 16 51 C16 60.57 16 70.14 16 80 C10.72 80 5.44 80 0 80 C0 53.6 0 27.2 0 0 Z M16 15 C16 21.93 16 28.86 16 36 C20.7953125 36.0928125 20.7953125 36.0928125 25.6875 36.1875 C26.68612061 36.21481201 27.68474121 36.24212402 28.71362305 36.27026367 C33.60721669 36.316118 37.08429832 36.29539251 41 33 C43.31762915 29.60081057 43.99013712 27.56218418 44.0625 23.4375 C42.9747791 19.91840298 41.8557984 18.28699163 38.98120117 16.0144043 C34.95685577 13.95387994 30.53152791 14.4949487 26.125 14.6875 C21.113125 14.8421875 21.113125 14.8421875 16 15 Z " fill="#00519C" transform="translate(168,7)"/>
<path d="M0 0 C5.28 0 10.56 0 16 0 C16 26.4 16 52.8 16 80 C10.72 80 5.44 80 0 80 C0 53.6 0 27.2 0 0 Z " fill="#00519C" transform="translate(234,7)"/>
</svg>
